<svg width="15" height="18" viewBox="0 0 15 18" fill="none" xmlns="http://www.w3.org/2000/svg">
<path d="M13.75 6.30005H11.25V4.42505C11.25 3.43049 10.8549 2.47666 10.1517 1.7734C9.44839 1.07014 8.49456 0.675049 7.5 0.675049C6.50544 0.675049 5.55161 1.07014 4.84835 1.7734C4.14509 2.47666 3.75 3.43049 3.75 4.42505V6.30005H1.25C0.918479 6.30005 0.600537 6.43175 0.366116 6.66617C0.131696 6.90059 0 7.21853 0 7.55005V16.3C0 16.6316 0.131696 16.9495 0.366116 17.1839C0.600537 17.4184 0.918479 17.55 1.25 17.55H13.75C14.0815 17.55 14.3995 17.4184 14.6339 17.1839C14.8683 16.9495 15 16.6316 15 16.3V7.55005C15 7.21853 14.8683 6.90059 14.6339 6.66617C14.3995 6.43175 14.0815 6.30005 13.75 6.30005ZM5 4.42505C5 3.76201 5.26339 3.12612 5.73223 2.65728C6.20107 2.18844 6.83696 1.92505 7.5 1.92505C8.16304 1.92505 8.79893 2.18844 9.26777 2.65728C9.73661 3.12612 10 3.76201 10 4.42505V6.30005H5V4.42505ZM13.75 16.3H1.25V7.55005H13.75V16.3Z" fill="#1E1E1E"/>
</svg>
