<svg width="20" height="20" viewBox="0 0 20 20" fill="none" xmlns="http://www.w3.org/2000/svg">
<mask id="mask0_2059_358" style="mask-type:luminance" maskUnits="userSpaceOnUse" x="0" y="0" width="20" height="20">
<path d="M20 0H0V20H20V0Z" fill="white"/>
</mask>
<g mask="url(#mask0_2059_358)">
<mask id="mask1_2059_358" style="mask-type:luminance" maskUnits="userSpaceOnUse" x="2" y="0" width="11" height="14">
<mask id="mask2_2059_358" style="mask-type:alpha" maskUnits="userSpaceOnUse" x="2" y="0" width="11" height="14">
<path d="M2.03125 0.3125V13.4375H12.8437V0.3125H2.03125Z" fill="white"/>
</mask>
<g mask="url(#mask2_2059_358)">
<path d="M17.5 -2.5H-2.5V17.5H17.5V-2.5Z" fill="white"/>
</g>
</mask>
<g mask="url(#mask1_2059_358)">
<path d="M10 3.75V12.5" stroke="#1E1E1E" stroke-width="1.25" stroke-linecap="round" stroke-linejoin="round"/>
<path d="M7.5 10L10 12.5L12.5 10" stroke="#1E1E1E" stroke-width="1.25" stroke-linecap="round" stroke-linejoin="round"/>
</g>
<path d="M4.375 13.125V15C4.375 15.69 4.935 16.25 5.625 16.25H14.375C15.065 16.25 15.625 15.69 15.625 15V13.125" stroke="#1E1E1E" stroke-width="1.25" stroke-linecap="round" stroke-linejoin="round"/>
<path d="M15.625 15C15.625 15.69 15.065 16.25 14.375 16.25H5.625C4.935 16.25 4.375 15.69 4.375 15" stroke="#1E1E1E" stroke-width="1.25" stroke-linecap="round" stroke-linejoin="round"/>
</g>
</svg>
