<svg width="16" height="16" viewBox="0 0 16 16" fill="none" xmlns="http://www.w3.org/2000/svg">
<path fill-rule="evenodd" clip-rule="evenodd" d="M6.28598 5.97937H8.76198V7.21271C9.11865 6.50337 10.0333 5.86604 11.4073 5.86604C14.0413 5.86604 14.6666 7.27804 14.6666 9.86871V14.6667H12V10.4587C12 8.98337 11.6433 8.15137 10.7353 8.15137C9.47598 8.15137 8.95265 9.04804 8.95265 10.458V14.6667H6.28598V5.97937ZM1.71331 14.5534H4.37998V5.86604H1.71331V14.5534ZM4.76198 3.03337C4.76208 3.25689 4.71775 3.4782 4.63157 3.68443C4.54539 3.89067 4.41908 4.07772 4.25998 4.23471C3.93758 4.55512 3.50119 4.73448 3.04665 4.73337C2.59291 4.73307 2.15752 4.55417 1.83465 4.23537C1.67612 4.07785 1.55024 3.89059 1.46421 3.68433C1.37818 3.47807 1.3337 3.25686 1.33331 3.03337C1.33331 2.58204 1.51331 2.15004 1.83531 1.83137C2.1579 1.51215 2.59347 1.33317 3.04731 1.33337C3.50198 1.33337 3.93798 1.51271 4.25998 1.83137C4.58131 2.15004 4.76198 2.58204 4.76198 3.03337Z" fill="#1E1E1E"/>
</svg>
