<svg width="15" height="14" viewBox="0 0 15 14" fill="none" xmlns="http://www.w3.org/2000/svg">
<path d="M14.8172 7.49222L9.19219 13.1172C9.07491 13.2345 8.91585 13.3004 8.75 13.3004C8.58415 13.3004 8.42509 13.2345 8.30781 13.1172C8.19054 12.9999 8.12465 12.8409 8.12465 12.675C8.12465 12.5092 8.19054 12.3501 8.30781 12.2328L12.8664 7.67503H0.625C0.45924 7.67503 0.300269 7.60918 0.183058 7.49197C0.0658481 7.37476 0 7.21579 0 7.05003C0 6.88427 0.0658481 6.7253 0.183058 6.60809C0.300269 6.49088 0.45924 6.42503 0.625 6.42503H12.8664L8.30781 1.86722C8.19054 1.74994 8.12465 1.59088 8.12465 1.42503C8.12465 1.25918 8.19054 1.10012 8.30781 0.982843C8.42509 0.865567 8.58415 0.799683 8.75 0.799683C8.91585 0.799683 9.07491 0.865567 9.19219 0.982843L14.8172 6.60784C14.8753 6.66589 14.9214 6.73482 14.9529 6.81069C14.9843 6.88657 15.0005 6.9679 15.0005 7.05003C15.0005 7.13216 14.9843 7.21349 14.9529 7.28937C14.9214 7.36524 14.8753 7.43417 14.8172 7.49222Z" fill="#1E1E1E"/>
</svg>
